<svg width="24" height="24" viewBox="0 0 24 24" fill="none" xmlns="http://www.w3.org/2000/svg">
<path d="M23.6425 4.93702C22.8075 5.30702 21.9105 5.55702 20.9675 5.67002C21.9405 5.08781 22.6685 4.17148 23.0155 3.09202C22.1014 3.63501 21.1009 4.01721 20.0575 4.22202C19.3559 3.47288 18.4266 2.97634 17.4138 2.80949C16.4011 2.64264 15.3616 2.81481 14.4568 3.29927C13.5519 3.78373 12.8323 4.55338 12.4097 5.48872C11.9871 6.42406 11.8851 7.47277 12.1195 8.47202C10.2672 8.37901 8.45515 7.89757 6.80095 7.05892C5.14674 6.22028 3.68736 5.04318 2.51752 3.60402C2.11752 4.29402 1.88752 5.09402 1.88752 5.94602C1.88708 6.71301 2.07596 7.46826 2.4374 8.14475C2.79885 8.82124 3.32168 9.39805 3.95952 9.82402C3.2198 9.80048 2.4964 9.6006 1.84952 9.24102V9.30102C1.84945 10.3768 2.22156 11.4194 2.90271 12.252C3.58386 13.0846 4.53209 13.6559 5.58652 13.869C4.90031 14.0547 4.18086 14.0821 3.48252 13.949C3.78002 14.8746 4.35952 15.684 5.13989 16.2639C5.92026 16.8438 6.86244 17.1652 7.83452 17.183C6.18436 18.4784 4.14641 19.1811 2.04852 19.178C1.6769 19.1781 1.3056 19.1564 0.936523 19.113C3.066 20.4822 5.54486 21.2088 8.07652 21.206C16.6465 21.206 21.3315 14.108 21.3315 7.95202C21.3315 7.75202 21.3265 7.55002 21.3175 7.35002C22.2288 6.69099 23.0154 5.87491 23.6405 4.94002L23.6425 4.93702Z" fill="black"/>
</svg>
